<svg xmlns="http://www.w3.org/2000/svg" width="657" height="188" fill="none">
    <path fill="currentColor" d="M644.798 163.427c-50.137 0-62.726-9.427-72.627-9.427-5.776 0-12.171 4.507-12.171 12.095 0 5.12 2.888 10.025 8.464 11.665 28.065 7.787 46.014 10.24 74.496 10.24 7.213 0 14.04-4.292 14.04-12.693 0-5.947-4.742-11.88-12.187-11.88zM648 74.208C648 33.31 614.901 0 574 0s-74 33.296-74 74.208S533.099 148 574 148s74-33.096 74-73.792m-121.287 0c0-27.326 20.558-49.544 47.287-49.544s47.287 22.202 47.287 49.544S600.729 123.32 574 123.32s-47.287-21.987-47.287-49.113M429.382 73.345c0-4.938 5.318-9.692 16.583-9.692 7.572 0 13.504 2.269 18.025 4.939 2.866 1.651 6.959 5.571 11.465 5.571 7.571 0 11.25-5.972 11.25-11.544 0-9.275-14.745-20.619-40.54-20.619-24.37 0-41.153 14.43-41.153 31.33 0 39.587 59.377 28.042 59.377 43.923 0 5.773-7.373 9.693-18.025 9.693-17.396 0-21.504-11.143-30.501-11.143-6.545 0-11.863 4.954-11.863 12.177 0 9.692 17.396 21.02 42.18 21.02 22.929 0 43.82-12.378 43.82-32.781 0-37.534-60.603-26.792-60.603-42.89zM376.213 42c-6.793 0-12.139 6.177-12.139 10.906C359.345 48.377 348.023 42 335.052 42 306.446 42 283 65.461 283 95.3s23.261 53.7 52.052 53.7c12.971 0 24.293-6.377 29.022-10.906 0 4.729 5.346 10.906 12.139 10.906S390 142.623 390 135.213V55.787C390 48.377 383.207 42 376.213 42m-39.097 83.138c-16.668 0-29.022-13.987-29.022-29.838s12.755-29.423 29.022-29.423 28.391 12.555 28.391 29.423-11.738 29.838-28.391 29.838M221.647 42.015C192.653 42.015 168 65.505 168 95.2S191.614 149 222.469 149c19.676 0 29.832-5.355 33.553-7.624 3.938-2.67 7.039-6.189 7.039-11.745 0-6.605-5.38-11.56-12.218-11.56-3.535 0-6.636 1.235-9.535 3.087-3.101 2.068-9.117 4.337-18.854 4.337-12.218 0-24.855-9.075-26.917-20.202h61.927c8.915 0 15.536-5.973 15.536-14.848C273 66.324 251.045 42 221.632 42zm-26.095 43.708c1.442-9.893 12.622-20.62 26.095-20.62 14.498 0 25.475 11.144 26.312 20.62h-52.407M149.439 46.015c-2.917 0-5.618.766-8.057 2.298-2.469 1.563-4.461 4.351-5.942 8.32l-20.019 54.341-20.405-55.307c-2.3-6.312-6.93-9.652-13.413-9.652S70.644 49.34 68.19 55.637l-20.405 54.801-19.802-53.193c-1.498-4.228-3.304-7.093-5.542-8.748s-5.078-2.482-8.473-2.482c-5.711 0-9.801 1.93-12.117 5.73-2.3 3.723-2.454 8.243-.478 13.467l28.848 72.236C33.215 145.109 38.725 149 46.597 149s13.567-4.075 16.392-11.797L80.83 89.909l18.213 47.493c2.81 7.584 8.474 11.583 16.377 11.583s13.212-3.876 16.376-11.537l28.632-72.22c1.96-4.72 2.083-9.07.386-12.931-1.266-2.865-4.26-6.297-11.361-6.297z"/>
</svg>
