<svg xmlns="http://www.w3.org/2000/svg" xmlns:xlink="http://www.w3.org/1999/xlink" width="1" height="1"><defs/><symbol id="icon-chevron" viewBox="0 0 24 24">
  <path fill="currentColor" fill-rule="evenodd" d="M18.783 8.22a.75.75 0 0 1 0 1.06l-6.252 6.252a.75.75 0 0 1-1.06 0L5.22 9.28a.75.75 0 0 1 1.06-1.06l5.721 5.72 5.721-5.72a.75.75 0 0 1 1.06 0Z" clip-rule="evenodd"/>
</symbol><symbol id="icon-close" viewBox="0 0 24 24">
  <path fill="currentColor" fill-rule="evenodd" d="M5.47 5.47a.75.75 0 0 1 1.06 0L12 10.94l5.47-5.47a.75.75 0 1 1 1.06 1.06L13.06 12l5.47 5.47a.75.75 0 1 1-1.06 1.06L12 13.06l-5.47 5.47a.75.75 0 0 1-1.06-1.06L10.94 12 5.47 6.53a.75.75 0 0 1 0-1.06" clip-rule="evenodd"/>
</symbol></svg>