<svg xmlns="http://www.w3.org/2000/svg" width="512" height="512" fill="none"><path fill="#28323c" d="M512 256c0 141.38-114.62 256-256 256S0 397.38 0 256 114.62 0 256 0s256 114.62 256 256"></path><path fill="#fff" d="M365.747 370.528c-83.218 0-104.112-15.528-120.545-15.528-9.588 0-20.202 7.423-20.202 19.921 0 8.432 4.794 16.512 14.049 19.213C285.631 406.96 315.422 411 362.696 411c11.972 0 23.304-7.069 23.304-20.905 0-9.797-7.871-19.567-20.228-19.567zM371 222.844C371 155.143 316.207 100 248.5 100S126 155.118 126 222.844 180.793 345 248.5 345 371 290.213 371 222.844m-200.779 0c0-45.236 34.032-82.015 78.279-82.015s78.279 36.754 78.279 82.015-34.032 81.301-78.279 81.301-78.279-36.397-78.279-81.301"></path></svg>